<svg xmlns="http://www.w3.org/2000/svg" viewBox="0 0 64 64">
  <rect width="64" height="64" rx="8" fill="#0D0D0D"/>
  <circle cx="40" cy="22" r="8" fill="none" stroke="#C9A84C" stroke-width="2"/>
  <line x1="40" y1="10" x2="40" y2="7" stroke="#C9A84C" stroke-width="1.5" stroke-linecap="round"/>
  <line x1="40" y1="34" x2="40" y2="37" stroke="#C9A84C" stroke-width="1.5" stroke-linecap="round"/>
  <line x1="28" y1="22" x2="25" y2="22" stroke="#C9A84C" stroke-width="1.5" stroke-linecap="round"/>
  <line x1="52" y1="22" x2="55" y2="22" stroke="#C9A84C" stroke-width="1.5" stroke-linecap="round"/>
  <line x1="31.5" y1="13.5" x2="29.4" y2="11.4" stroke="#C9A84C" stroke-width="1.5" stroke-linecap="round"/>
  <line x1="48.5" y1="30.5" x2="50.6" y2="32.6" stroke="#C9A84C" stroke-width="1.5" stroke-linecap="round"/>
  <line x1="48.5" y1="13.5" x2="50.6" y2="11.4" stroke="#C9A84C" stroke-width="1.5" stroke-linecap="round"/>
  <line x1="31.5" y1="30.5" x2="29.4" y2="32.6" stroke="#C9A84C" stroke-width="1.5" stroke-linecap="round"/>
  <!-- Lion body -->
  <ellipse cx="26" cy="38" rx="14" ry="8" fill="#C9A84C"/>
  <!-- Lion head -->
  <circle cx="16" cy="32" r="7" fill="#C9A84C"/>
  <!-- Mane -->
  <circle cx="16" cy="32" r="9" fill="none" stroke="#C9A84C" stroke-width="3" opacity="0.5"/>
  <!-- Legs -->
  <rect x="15" y="44" width="4" height="8" rx="2" fill="#C9A84C"/>
  <rect x="22" y="44" width="4" height="8" rx="2" fill="#C9A84C"/>
  <rect x="29" y="44" width="4" height="8" rx="2" fill="#C9A84C"/>
  <rect x="36" y="44" width="4" height="8" rx="2" fill="#C9A84C"/>
  <!-- Tail -->
  <path d="M40 38 Q48 34 46 28" fill="none" stroke="#C9A84C" stroke-width="2.5" stroke-linecap="round"/>
</svg>
